HIERARCHY
ROOT Hips
{
	OFFSET -3.958830 18.904000 13.208200
	CHANNELS 6 Xposition Yposition Zposition Zrotation Yrotation Xrotation 
	JOINT LHipJoint
	{
		OFFSET 0.000000 0.000000 0.000000
		CHANNELS 3 Zrotation Yrotation Xrotation
		JOINT LeftUpLeg
		{
			OFFSET 1.800000 -1.400000 0.085000
			CHANNELS 3 Zrotation Yrotation Xrotation
			JOINT LeftLeg
			{
				OFFSET 2.215000 -6.000000 0.000000
				CHANNELS 3 Zrotation Yrotation Xrotation
				JOINT LeftFoot
				{
					OFFSET 2.500000 -6.900000 0.000000
					CHANNELS 3 Zrotation Yrotation Xrotation
					JOINT LeftToeBase
					{
						OFFSET 0.200000 -0.500000 1.950000
						CHANNELS 3 Zrotation Yrotation Xrotation
						End Site
						{
							OFFSET 0.000000 0.000000 0.000000
						}
					}
				}
			}
		}
	}
	JOINT RHipJoint
	{
		OFFSET 0.000000 0.000000 0.000000
		CHANNELS 3 Zrotation Yrotation Xrotation
		JOINT RightUpLeg
		{
			OFFSET -1.800000 -1.400000 0.085000
			CHANNELS 3 Zrotation Yrotation Xrotation
			JOINT RightLeg
			{
				OFFSET -2.215000 -6.000000 0.000000
				CHANNELS 3 Zrotation Yrotation Xrotation
				JOINT RightFoot
				{
					OFFSET -2.500000 -6.900000 0.000000
					CHANNELS 3 Zrotation Yrotation Xrotation
					JOINT RightToeBase
					{
						OFFSET -0.200000 -0.500000 1.950000
						CHANNELS 3 Zrotation Yrotation Xrotation
						End Site
						{
							OFFSET 0.000000 0.000000 0.000000
						}
					}
				}
			}
		}
	}
	JOINT LowerBack
	{
		OFFSET 0.000000 0.000000 0.000000
		CHANNELS 3 Zrotation Yrotation Xrotation
		JOINT Spine
		{
			OFFSET -0.087000 1.940000 -0.288900
			CHANNELS 3 Zrotation Yrotation Xrotation
			JOINT Spine1
			{
				OFFSET 0.000000 1.950000 0.060000
				CHANNELS 3 Zrotation Yrotation Xrotation
				JOINT Neck
				{
					OFFSET 0.000000 0.000000 0.000000
					CHANNELS 3 Zrotation Yrotation Xrotation
					JOINT Neck1
					{
						OFFSET 0.000000 1.600000 0.340000
						CHANNELS 3 Zrotation Yrotation Xrotation
						JOINT Head
						{
							OFFSET 0.000000 1.667000 -0.240000
							CHANNELS 3 Zrotation Yrotation Xrotation
							End Site
							{
								OFFSET 0.000000 0.000000 0.000000
							}
						}
					}
				}
				JOINT LeftShoulder
				{
					OFFSET 0.000000 0.000000 0.000000
					CHANNELS 3 Zrotation Yrotation Xrotation
					JOINT LeftArm
					{
						OFFSET 2.700000 1.550000 -0.730000
						CHANNELS 3 Zrotation Yrotation Xrotation
						JOINT LeftForeArm
						{
							OFFSET 5.450000 0.000000 0.000000
							CHANNELS 3 Zrotation Yrotation Xrotation
							JOINT LeftHand
							{
								OFFSET 3.450000 0.000000 0.000000
								CHANNELS 3 Zrotation Yrotation Xrotation
								JOINT LeftHandIndex1
								{
									OFFSET 0.750000 0.000000 0.000000
									CHANNELS 3 Zrotation Yrotation Xrotation
									End Site
									{
										OFFSET 0.000000 0.000000 0.000000
									}
								}
							}
						}
					}
				}
				JOINT RightShoulder
				{
					OFFSET 0.000000 0.000000 0.000000
					CHANNELS 3 Zrotation Yrotation Xrotation
					JOINT RightArm
					{
						OFFSET -2.700000 1.550000 -0.730000
						CHANNELS 3 Zrotation Yrotation Xrotation
						JOINT RightForeArm
						{
							OFFSET -5.450000 0.000000 0.000000
							CHANNELS 3 Zrotation Yrotation Xrotation
							JOINT RightHand
							{
								OFFSET -3.450000 0.000000 0.000000
								CHANNELS 3 Zrotation Yrotation Xrotation
								JOINT RightHandIndex1
								{
									OFFSET -0.750000 0.000000 0.000000
									CHANNELS 3 Zrotation Yrotation Xrotation
									End Site
									{
										OFFSET 0.000000 0.000000 0.000000
									}
								}
							}
						}
					}
				}
			}
		}
	}
}
MOTION
Frames: 14
Frame Time: 0.016667
-0.836870 17.044050 -1.551950 -2.533549 -17.072945 -0.017275 -14.893128 13.669136 2.289296 12.990147 0.470439 -5.673629 -4.892945 6.465143 13.917238 -0.597493 4.969163 3.079401 0.719060 0.441010 0.364600 18.480926 -10.986363 2.652414 -17.408215 3.379833 -24.515362 9.102273 -8.987646 31.581816 -0.378812 -5.463239 2.515815 0.459400 0.426040 0.188610 -4.148794 -1.725256 -6.579154 11.662452 -4.098731 4.428028 -12.414836 -2.786217 10.604072 1.998775 -8.232211 -10.584426 -15.560044 16.189220 24.185725 0.296180 7.118420 -8.688910 -20.416241 -12.752941 5.032336 -43.612912 -7.445719 2.276312 -4.602272 -7.242313 -0.838714 -3.932725 2.930368 0.417040 0.296590 -0.184500 0.382220 16.574909 18.267175 7.643921 58.375583 23.128946 -0.649758 27.089095 83.984666 14.067789 1.629577 -2.008380 -0.271940 0.375100 -0.139970 -0.211560 
-0.866960 17.068050 -1.545170 -2.564697 -14.947380 0.445300 -14.818705 13.512969 2.305954 13.381660 0.431141 -6.408378 -5.399403 6.466533 13.331795 -0.608229 4.929542 3.111274 0.688290 0.405360 0.334520 18.539483 -11.152871 2.620490 -16.989672 3.408451 -23.345980 9.244774 -8.723272 30.108496 -0.337571 -5.314839 2.595218 0.445870 0.462560 0.176130 -4.352100 -1.189990 -6.548927 13.521221 -3.826331 4.032628 -13.728151 -2.406421 10.659187 2.580802 -8.450340 -10.533457 -15.541418 15.375750 23.860151 -0.114560 6.103580 -8.275960 -19.839243 -11.888316 5.010488 -44.985880 -5.650659 1.506361 -5.066623 -6.988277 -0.899223 -3.953306 2.901613 0.401050 0.314110 -0.213660 0.388710 14.798306 18.061309 7.603901 59.594706 24.449697 2.883096 42.776948 84.489012 26.784962 1.788366 -1.982410 -0.290220 0.399770 -0.124830 -0.200570 
-0.886300 17.093690 -1.529800 -2.754537 -12.855447 0.877547 -14.739022 13.355127 2.325725 13.653181 0.360991 -6.992467 -5.627976 6.334094 12.501115 -0.626545 4.834007 3.157568 0.640220 0.358950 0.305470 18.602210 -11.341055 2.591722 -16.294802 3.415806 -22.294213 8.992093 -8.377327 28.863238 -0.288819 -5.143344 2.691372 0.425670 0.484540 0.143720 -4.566308 -0.609388 -6.527469 15.762638 -3.588499 3.683843 -15.436052 -2.055274 10.688104 3.381008 -8.518627 -10.456732 -15.226154 14.645809 23.821238 -0.627610 5.403400 -8.081470 -19.354301 -10.899725 4.975102 -46.208933 -3.625571 0.499901 -4.588686 -7.077940 -0.960328 -3.970000 2.840944 0.391240 0.324250 -0.240460 0.376210 12.641808 17.603508 7.508550 61.828374 25.653822 7.516565 59.613772 85.575295 39.984826 2.176817 -1.528144 -0.317640 0.430060 -0.103370 -0.200220 
-0.896830 17.118040 -1.516050 -2.711204 -10.873656 1.384213 -14.698938 13.189094 2.377869 13.628934 0.242982 -7.457458 -6.105541 6.141273 11.225423 -0.647757 4.742002 3.192449 0.601550 0.307510 0.279410 18.635416 -11.489603 2.552870 -15.705265 3.398195 -21.606098 8.379214 -7.970705 27.801282 -0.250784 -4.976223 2.759171 0.396980 0.496100 0.150680 -4.680315 -0.100027 -6.513836 17.345953 -3.173682 3.282259 -16.598938 -1.659680 10.586118 3.994633 -8.391971 -10.249299 -14.550151 13.834524 23.811795 -1.255310 4.809270 -7.998550 -18.452682 -9.699390 4.937595 -47.720508 -1.723882 -0.647284 -3.944213 -8.194225 -1.049263 -3.986867 2.825324 0.393900 0.332970 -0.255650 0.361040 10.388373 16.798226 7.157343 64.864329 26.685765 12.093125 76.978250 85.712743 52.146174 3.105557 0.026408 -0.327310 0.423270 -0.073220 -0.203330 
-0.897780 17.136200 -1.498640 -2.388903 -8.595362 2.165471 -14.685325 13.058553 2.409929 13.043933 0.014691 -8.483930 -6.229576 5.874711 10.416268 -0.664636 4.604804 3.263459 0.556580 0.249770 0.249890 18.646375 -11.609905 2.526521 -15.380788 3.283559 -21.313976 7.742091 -7.571728 26.634492 -0.193108 -4.820547 2.833823 0.371290 0.543580 0.164450 -4.728542 0.305201 -6.494598 18.075103 -2.868267 2.701240 -16.959242 -1.486564 10.346035 4.390255 -8.031936 -10.080433 -13.426737 12.932415 23.117055 -1.981960 4.352900 -6.970230 -17.150449 -8.219740 4.859987 -50.268810 0.175864 -2.035632 -2.350794 -10.063685 -1.181413 -4.033842 2.820890 0.357950 0.377340 -0.293430 0.361570 8.231316 15.433497 6.800355 67.328524 27.781239 12.459499 90.062197 80.893142 59.101052 3.509666 0.846121 -0.339160 0.419250 -0.053900 -0.194830 
-0.888980 17.157590 -1.486650 -2.286665 -5.634940 2.713225 -14.646222 12.955517 2.432288 12.602874 -0.213207 -9.631529 -5.987729 5.588710 9.992250 -0.694630 4.438595 3.333300 0.513080 0.194850 0.217090 18.668875 -11.756158 2.522635 -15.103901 3.082758 -20.541415 7.533502 -7.351974 25.302123 -0.155507 -4.715662 2.894421 0.340850 0.572490 0.171200 -4.842373 0.707054 -6.540528 18.914974 -2.647703 2.492973 -17.078186 -1.326400 10.347125 4.830998 -7.413281 -10.219758 -11.958253 11.804948 22.801982 -2.698140 3.917320 -6.264180 -16.287323 -7.280618 4.934356 -52.122127 2.296397 -3.811644 -1.852544 -13.265288 -1.309424 -4.035709 2.829576 0.343350 0.405120 -0.321250 0.360980 6.503929 14.400579 6.978217 68.471394 28.509437 10.837817 100.778132 76.122893 66.204310 3.230294 0.695378 -0.352400 0.409460 -0.035540 -0.192850 
-0.875250 17.173680 -1.478770 -2.252516 -2.430722 3.294807 -14.609943 12.852944 2.460187 12.180964 -0.470931 -10.964520 -5.703121 5.309084 9.649012 -0.709682 4.274774 3.400365 0.450710 0.114150 0.179580 18.687298 -11.885724 2.536316 -14.811193 2.844629 -19.628726 7.590006 -7.170867 23.647488 -0.110338 -4.609801 2.954566 0.292690 0.604340 0.184280 -4.960306 1.071011 -6.619636 19.543662 -2.289789 2.385371 -16.566786 -1.047597 10.373578 4.984568 -6.664054 -10.456078 -10.369119 10.079525 22.524803 -3.324850 3.005470 -5.308020 -15.352962 -6.706092 5.055834 -53.640457 3.990483 -5.382930 -2.548448 -15.821028 -1.357615 -4.053992 2.839781 0.315490 0.436440 -0.354550 0.347040 5.290681 13.650938 7.418778 68.647638 28.283035 9.149498 110.848785 72.469336 75.284052 2.671828 0.059491 -0.358100 0.391630 -0.005600 -0.187510 
-0.857000 17.183660 -1.481240 -2.153098 0.590987 4.079675 -14.590302 12.721913 2.474771 11.555744 -0.758520 -12.415846 -5.269425 4.983660 9.359642 -0.758555 4.090855 3.481730 0.412150 0.062110 0.169180 18.698114 -12.009767 2.560475 -14.581874 2.607979 -18.901514 7.628048 -6.934572 21.778689 -0.071741 -4.497751 3.014345 0.273770 0.634150 0.189610 -5.052130 1.489518 -6.662809 19.722676 -1.713654 2.041926 -15.635508 -0.702759 10.228796 4.985050 -5.611901 -10.290992 -8.264865 8.133391 21.988414 -4.342900 2.241360 -4.655350 -14.070167 -5.329250 4.841728 -54.948710 5.318403 -6.726260 -4.369604 -18.180295 -1.258731 -4.081933 2.828986 0.296530 0.472940 -0.383430 0.340540 3.973852 11.821819 7.431109 69.307651 27.752331 9.465007 117.052411 70.535947 81.481048 2.324263 -0.450511 -0.379510 0.392730 0.008360 -0.193250 
-0.833470 17.196730 -1.489150 -2.149818 3.328189 4.692690 -14.574075 12.614251 2.482240 11.175947 -0.962159 -13.639016 -4.760182 4.701880 9.185527 -0.777685 3.895765 3.541535 0.410580 0.061970 0.174470 18.708115 -12.117004 2.580199 -14.150890 2.389218 -17.945147 7.508413 -6.628894 19.930483 -0.059336 -4.375837 3.071463 0.266120 0.614710 0.197540 -5.140482 1.841152 -6.694691 19.919442 -1.309040 1.870779 -14.595320 -0.519323 10.156817 4.799141 -4.701020 -10.199668 -6.529065 6.449884 21.719921 -5.002530 1.546710 -4.632240 -12.822524 -4.106405 4.995448 -56.002659 7.441186 -8.509459 -7.785134 -21.655401 -0.849624 -4.044698 2.873086 0.284400 0.474170 -0.379290 0.336530 3.041510 10.157619 7.166636 69.393103 27.375828 10.207928 120.390991 69.173866 84.430186 2.171053 -0.783643 -0.364680 0.366240 -0.001610 -0.194190 
-0.807380 17.208160 -1.505130 -1.962248 6.105562 5.229434 -14.572536 12.495282 2.480020 10.663000 -1.139898 -14.749656 -4.326618 4.468547 9.103834 -0.805141 3.728306 3.591824 0.407610 0.052590 0.189090 18.709956 -12.184670 2.622677 -14.146871 2.182076 -16.916765 7.936006 -6.481965 17.912220 -0.059075 -4.327374 3.104579 0.254660 0.593930 0.208880 -5.203844 2.153001 -6.730539 19.420410 -0.739992 1.787490 -13.500194 -0.187834 10.181682 4.714993 -3.295582 -10.092239 -4.063575 4.521561 21.654828 -5.776710 1.021490 -4.567990 -12.251165 -3.175167 5.306054 -55.557726 9.973951 -10.113166 -12.968043 -25.637828 0.142074 -3.999137 2.934591 0.283370 0.480580 -0.373860 0.327120 2.589311 8.323693 6.728009 69.063483 26.579400 10.569390 122.242676 67.985834 85.492940 2.082517 -1.010449 -0.356030 0.340610 -0.007940 -0.206500 
-0.775990 17.222490 -1.527890 -1.905566 9.303842 5.690856 -14.581050 12.367087 2.490470 10.325489 -1.322728 -15.764569 -3.945206 4.195330 8.632351 -0.813430 3.552110 3.635945 0.419670 0.063150 0.208410 18.709585 -12.221968 2.655403 -13.997715 1.944071 -15.681120 8.149680 -6.245451 15.765186 -0.072133 -4.285008 3.124489 0.248040 0.554700 0.229030 -5.260180 2.407594 -6.764820 18.975076 -0.253746 1.745678 -12.435480 0.065573 10.176712 4.593633 -1.902188 -9.960351 -1.679236 2.350980 21.489532 -6.397240 0.250940 -4.463260 -12.354710 -2.396148 5.597873 -54.299305 12.439001 -11.237622 -18.493901 -29.167262 1.581369 -3.939191 3.041253 0.273010 0.475380 -0.358570 0.318660 2.882331 6.527936 6.280545 68.087022 24.879580 9.973913 124.047444 66.932211 86.587011 2.018330 -1.204974 -0.325730 0.293580 -0.023250 -0.211740 
-0.742210 17.234760 -1.549200 -2.063652 11.951244 6.160570 -14.595884 12.258883 2.506455 10.191841 -1.460374 -16.556181 -3.589807 3.924395 7.942105 -0.813415 3.382235 3.669011 0.455680 0.117240 0.226560 18.711129 -12.242375 2.662593 -13.365502 1.769109 -14.800186 7.686074 -5.865620 14.171734 -0.085521 -4.208410 3.148821 0.266230 0.505890 0.243200 -5.295808 2.591933 -6.769555 18.587122 0.286610 1.680275 -11.313697 0.395605 10.182792 4.336448 -0.778054 -9.781142 0.236441 0.410726 21.047269 -6.599460 -0.604370 -4.552950 -12.360475 -1.587645 5.879450 -52.545382 14.675675 -11.831648 -25.636385 -32.470387 3.744403 -3.862943 3.186989 0.251780 0.460880 -0.338190 0.318470 3.402206 4.799746 5.668725 66.271653 22.819194 8.863032 124.268334 66.066460 85.806766 1.998255 -1.362659 -0.282930 0.244230 -0.051350 -0.205710 
-0.705810 17.245100 -1.564810 -2.105933 14.268616 6.594565 -14.619819 12.157471 2.528483 10.079573 -1.572785 -17.060620 -3.459519 3.709101 7.105121 -0.837466 3.284748 3.692780 0.492020 0.157770 0.251980 18.707353 -12.236594 2.662328 -12.849586 1.593812 -13.937049 7.244824 -5.554160 12.763448 -0.100420 -4.161571 3.175746 0.291070 0.479000 0.249860 -5.299322 2.710073 -6.768651 17.861318 0.803854 1.626132 -10.298233 0.730095 10.403442 4.129706 0.282417 -9.694291 2.032006 -1.400016 20.580023 -6.710680 -1.571860 -4.871890 -12.365444 -1.075274 6.196963 -50.393281 16.892656 -12.064954 -33.157471 -35.607354 6.414606 -3.803660 3.296684 0.250290 0.455920 -0.327020 0.321590 3.874387 3.415374 5.177257 64.674128 21.019021 8.323720 126.631077 64.548965 87.117707 1.916744 -1.564090 -0.267310 0.230690 -0.070690 -0.211410 
-0.663180 17.252390 -1.582760 -2.133122 16.279941 7.009264 -14.644291 12.083019 2.540528 9.813694 -1.693807 -17.679443 -3.100982 3.500367 6.586709 -0.867112 3.195850 3.720516 0.505590 0.168740 0.267590 18.699494 -12.217960 2.675224 -12.597724 1.483450 -13.379065 7.155698 -5.386819 11.724428 -0.109779 -4.150847 3.178287 0.304260 0.468290 0.254610 -5.290488 2.775038 -6.766993 17.108357 1.270089 1.636868 -9.196700 1.036881 10.636829 3.867061 0.999365 -9.689253 3.253767 -2.971362 20.298218 -6.941880 -2.618210 -4.919290 -11.825639 -0.552169 6.451647 -48.665264 18.714898 -11.980598 -41.158411 -37.969018 9.485671 -3.769079 3.380209 0.248460 0.455510 -0.324640 0.317330 3.920522 2.353237 4.813326 63.159902 19.553021 8.406935 130.557540 62.223140 89.605559 1.828872 -1.792656 -0.264070 0.229380 -0.073130 -0.216190 
